{
  "accessors": [
    {
      "bufferView": 1,
      "componentType": 5126,
      "count": 13890,
      "max": [
        -0.218175008893013,
        -0.19069600105285645,
        0.061544302850961685
      ],
      "min": [
        -0.309347003698349,
        -0.20934101939201355,
        -0.048754002898931503
      ],
      "type": "VEC3"
    },
    {
      "bufferView": 1,
      "byteOffset": 166680,
      "componentType": 5126,
      "count": 13890,
      "max": [
        0.99999606609344482,
        0.99999940395355225,
        0.99999809265136719
      ],
      "min": [
        -0.99995291233062744,
        -0.99999964237213135,
        -0.99999070167541504
      ],
      "type": "VEC3"
    },
    {
      "bufferView": 0,
      "componentType": 5125,
      "count": 83268,
      "max": [
        13889
      ],
      "min": [
        0
      ],
      "type": "SCALAR"
    }
  ],
  "asset": {
    "extras": {
      "author": "gavinchan180 (https://sketchfab.com/gavinchan180)",
      "license": "CC-BY-4.0 (http://creativecommons.org/licenses/by/4.0/)",
      "source": "https://sketchfab.com/3d-models/letter-g-balloon-1fe6622eb04e4e4ea64e906ca5982db1",
      "title": "Letter G Balloon"
    },
    "generator": "Sketchfab-9.14.0",
    "version": "2.0"
  },
  "bufferViews": [
    {
      "buffer": 0,
      "byteLength": 333072,
      "byteOffset": 0,
      "name": "floatBufferViews",
      "target": 34963
    },
    {
      "buffer": 0,
      "byteLength": 333360,
      "byteOffset": 333072,
      "byteStride": 12,
      "name": "floatBufferViews",
      "target": 34962
    }
  ],
  "buffers": [
    {
      "byteLength": 666432,
      "uri": "scene.bin"
    }
  ],
  "materials": [
    {
      "doubleSided": false,
      "emissiveFactor": [
        0,
        0,
        0
      ],
      "name": "Metallic",
      "pbrMetallicRoughness": {
        "baseColorFactor": [
          1,
          1,
          1,
          1
        ],
        "metallicFactor": 1,
        "roughnessFactor": 0
      }
    }
  ],
  "meshes": [
    {
      "primitives": [
        {
          "attributes": {
            "NORMAL": 1,
            "POSITION": 0
          },
          "indices": 2,
          "material": 0,
          "mode": 4
        }
      ]
    }
  ],
  "nodes": [
    {
      "children": [
        1
      ],
      "name": "RootNode (gltf orientation matrix)",
      "rotation": [
        -0.70710678118654746,
        -0,
        -0,
        0.70710678118654757
      ]
    },
    {
      "children": [
        2
      ],
      "matrix": [
        1,
        0,
        0,
        0,
        0,
        1,
        3.8285688045569402e-16,
        0,
        0,
        -3.8285688045569402e-16,
        1,
        0,
        0,
        -1.0372938064051596e-09,
        7.4572292785290983e-14,
        1
      ],
      "name": "RootNode (model correction matrix)"
    },
    {
      "children": [
        3
      ],
      "name": "root"
    },
    {
      "children": [
        4
      ],
      "matrix": [
        1,
        0,
        0,
        0,
        0,
        2.2204460492503131e-16,
        1,
        0,
        0,
        -1,
        2.2204460492503131e-16,
        0,
        0,
        0,
        0,
        1
      ],
      "name": "GLTF_SceneRootNode"
    },
    {
      "children": [
        5
      ],
      "matrix": [
        0.99999994039535522,
        0,
        0,
        0,
        0,
        -2.6334762992519245e-07,
        -2.2091197967529297,
        0,
        0,
        0.99999982118606567,
        -1.1920928244535389e-07,
        0,
        0.26376098394393921,
        0.048753939568996429,
        -0.42786195874214172,
        1
      ],
      "name": "_0"
    },
    {
      "mesh": 0,
      "name": ""
    }
  ],
  "scene": 0,
  "scenes": [
    {
      "name": "OSG_Scene",
      "nodes": [
        0
      ]
    }
  ]
}

