<?xml version="1.0" encoding="utf-8"?>
<!-- Generator: Adobe Illustrator 27.7.0, SVG Export Plug-In . SVG Version: 6.00 Build 0)  -->
<svg version="1.1" id="Layer_1" xmlns="http://www.w3.org/2000/svg" xmlns:xlink="http://www.w3.org/1999/xlink" x="0px" y="0px"
	 viewBox="0 0 24 24" style="enable-background:new 0 0 24 24;" xml:space="preserve">
<style type="text/css">
	.st0{fill:none;stroke:#FA8072;stroke-width:2;stroke-linecap:round;stroke-linejoin:round;}
</style>
<path class="st0" d="M7,2h10c2.8,0,5,2.2,5,5v10c0,2.8-2.2,5-5,5H7c-2.8,0-5-2.2-5-5V7C2,4.2,4.2,2,7,2z"/>
<path class="st0" d="M18.6,11.4c0.5,4-2,7.6-5.8,8.2s-7.1-2.2-7.6-6.2c-0.5-3.8,2-7.6,5.8-8.2c0.7-0.2,1.4-0.2,2,0
	C15.9,5.7,18.1,8.1,18.6,11.4z"/>
<line class="st0" x1="13.9" y1="12" x2="13.9" y2="12"/>
<line class="st0" x1="9.9" y1="12" x2="9.9" y2="12"/>
</svg>
