<?xml version="1.0" standalone="no"?>
<!DOCTYPE svg PUBLIC "-//W3C//DTD SVG 20010904//EN"
 "http://www.w3.org/TR/2001/REC-SVG-20010904/DTD/svg10.dtd">
<svg version="1.0" xmlns="http://www.w3.org/2000/svg"
 width="141.000000pt" height="141.000000pt" viewBox="0 0 141.000000 141.000000"
 preserveAspectRatio="xMidYMid meet">
<metadata>
Created by potrace 1.11, written by Peter Selinger 2001-2013
</metadata>
<g transform="translate(0.000000,141.000000) scale(0.100000,-0.100000)"
fill="#000000" stroke="none">
<path d="M856 1205 c-44 -15 -94 -60 -102 -90 -5 -19 -13 -20 -102 -21 -123 0
-172 -15 -229 -67 -80 -73 -90 -116 -43 -171 l31 -35 -26 -50 c-14 -28 -32
-79 -40 -113 -23 -101 -73 -149 -176 -169 -67 -13 -69 -19 -38 -82 58 -112
144 -210 274 -308 52 -39 54 -40 83 -25 41 21 137 110 162 151 19 30 23 32 53
25 17 -5 46 -14 63 -21 67 -27 162 22 247 127 85 105 138 247 123 329 -13 68
-43 87 -294 184 -128 50 -244 91 -258 91 -32 0 -72 -21 -103 -54 -28 -29 -51
-20 -51 19 0 30 68 91 117 104 58 16 203 14 203 -3 0 -7 18 -34 40 -59 118
-134 360 -81 360 78 0 120 -160 208 -294 160z m-59 -339 c103 -40 195 -76 203
-78 9 -3 -4 -13 -34 -26 -62 -28 -162 -129 -203 -207 -34 -65 -63 -154 -63
-193 0 -14 -25 -62 -55 -108 -66 -98 -164 -181 -195 -164 -31 17 -181 147
-210 182 -28 35 -110 167 -110 178 0 4 30 15 67 25 53 14 76 27 110 61 23 24
45 54 49 68 3 14 10 23 15 20 5 -3 9 -1 9 5 0 5 -5 11 -10 13 -15 5 19 99 61
173 40 68 107 125 149 125 15 0 113 -33 217 -74z m290 -128 c11 -13 23 -41 27
-63 l7 -40 -23 37 c-32 55 -77 64 -155 32 -41 -18 -133 -110 -133 -133 1 -11
8 -6 22 14 53 73 128 125 181 125 25 0 77 -34 77 -51 0 -15 -20 -10 -47 11
-15 11 -28 18 -31 15 -3 -3 3 -12 14 -20 22 -17 24 -16 -45 -19 -48 -3 -52 -1
-36 10 11 8 27 14 37 14 10 0 18 4 18 9 0 12 -55 -3 -78 -21 -37 -27 -72 -62
-72 -72 0 -5 15 4 33 22 33 32 55 43 41 20 -5 -8 -2 -9 12 -3 10 4 32 10 47
13 26 4 28 2 25 -19 -2 -17 1 -23 12 -21 12 3 13 1 3 -9 -10 -10 -16 -10 -25
-1 -19 19 -44 14 -79 -15 -37 -32 -73 -105 -64 -133 8 -24 38 -34 64 -21 19
11 56 52 77 87 11 17 12 17 10 -8 0 -14 -4 -24 -8 -22 -3 2 -16 -8 -27 -22
-11 -14 -37 -34 -58 -45 -26 -13 -31 -19 -18 -19 17 -1 17 -3 -5 -15 -16 -9
-20 -15 -10 -16 8 -1 2 -5 -15 -9 l-30 -8 28 -1 c43 -2 89 22 130 69 40 44 90
137 81 152 -3 4 0 8 5 8 17 0 13 -16 -15 -71 -50 -100 -145 -179 -214 -179
-16 0 -30 -4 -30 -10 0 -28 93 -1 157 46 38 28 38 28 -7 -19 -46 -49 -128 -97
-166 -97 -12 0 -33 9 -47 20 -96 76 28 373 197 471 62 35 105 37 133 7z m-157
-192 c0 -2 -8 -10 -17 -17 -16 -13 -17 -12 -4 4 13 16 21 21 21 13z m121 -23
c-12 -20 -14 -14 -5 12 4 9 9 14 11 11 3 -2 0 -13 -6 -23z m-83 -18 c-3 -3 -9
2 -12 12 -6 14 -5 15 5 6 7 -7 10 -15 7 -18z m-18 -29 c0 -2 -8 -10 -17 -17
-16 -13 -17 -12 -4 4 13 16 21 21 21 13z m-242 -205 c-15 -5 -21 7 -13 26 7
17 8 17 15 -2 4 -11 3 -22 -2 -24z"/>
<path d="M404 605 c11 -8 22 -12 25 -9 6 6 -19 24 -34 24 -5 -1 -1 -7 9 -15z"/>
<path d="M450 592 c0 -5 7 -15 15 -22 8 -7 15 -8 15 -2 0 5 -7 15 -15 22 -8 7
-15 8 -15 2z"/>
<path d="M514 545 c26 -19 42 -19 26 0 -7 8 -20 15 -29 15 -13 -1 -13 -3 3
-15z"/>
<path d="M572 518 c5 -15 28 -23 28 -10 0 5 -7 13 -16 16 -10 4 -14 1 -12 -6z"/>
<path d="M610 493 c0 -8 73 -53 86 -53 3 0 1 7 -6 15 -7 8 -18 15 -25 15 -7 0
-18 7 -25 15 -13 16 -30 20 -30 8z"/>
<path d="M882 597 c-24 -26 -29 -42 -9 -31 7 4 9 3 4 -2 -5 -5 -14 -9 -19 -9
-6 0 -13 -5 -15 -12 -7 -21 22 -7 59 29 30 29 34 37 22 42 -21 8 -18 9 -42
-17z m38 10 c0 -2 -10 -12 -22 -23 l-23 -19 19 23 c18 21 26 27 26 19z"/>
<path d="M822 548 c-41 -66 -46 -139 -14 -183 l14 -20 -8 20 c-4 11 -9 43 -10
70 l-2 50 7 -47 c10 -66 19 -69 15 -6 -1 29 0 40 3 23 7 -45 18 -49 18 -7 0
20 4 47 8 59 7 19 5 21 -13 18 -21 -4 -21 -3 -5 21 9 14 15 28 12 30 -3 3 -14
-10 -25 -28z"/>
<path d="M780 520 c-12 -24 -24 -66 -27 -94 -4 -44 -1 -56 21 -85 29 -39 33
-37 11 5 -21 40 -18 111 5 163 26 57 18 66 -10 11z"/>
</g>
</svg>
